/* XPM */
static const char *xpm2048[] = {
/* columns rows colors chars-per-pixel */
"64 64 156 2 ",
"   c #F64D27",
".  c #F64E2B",
"X  c #F5522D",
"o  c #F9532E",
"O  c #F55532",
"+  c #FA5534",
"@  c #F75936",
"#  c #F85937",
"$  c #F65C3A",
"%  c #F85B3A",
"&  c #F5603E",
"*  c #F45F40",
"=  c #EF6847",
"-  c #ED6949",
";  c #F36344",
":  c #F86040",
">  c #F36748",
",  c #F46A4C",
"<  c #EB6E50",
"1  c #F46E52",
"2  c #E37C5E",
"3  c #F57155",
"4  c #F4755A",
"5  c #F3785C",
"6  c #F47C62",
"7  c #EFC403",
"8  c #EFC60A",
"9  c #EFC80D",
"0  c #F0C404",
"q  c #F5C905",
"w  c #F0C60B",
"e  c #F2C90C",
"r  c #EEC712",
"t  c #EFC814",
"y  c #EFC719",
"u  c #EECA1B",
"i  c #F1C712",
"p  c #F0C812",
"a  c #F1C71A",
"s  c #F0C91B",
"d  c #E7C427",
"f  c #E9C426",
"g  c #EECA23",
"h  c #E7C428",
"j  c #E8C428",
"k  c #EFCC2A",
"l  c #F0CB24",
"z  c #F0CC2B",
"x  c #E6C231",
"c  c #EECF35",
"v  c #F1CE33",
"b  c #F0CE39",
"n  c #EFD33E",
"m  c #F0D03A",
"M  c #DEBE43",
"N  c #D7BD55",
"B  c #D9BD52",
"V  c #D8BB58",
"C  c #E0BE44",
"Z  c #DC866A",
"A  c #D59076",
"S  c #D1997E",
"D  c #F58067",
"F  c #F5836B",
"G  c #F38670",
"H  c #F58C75",
"J  c #F5937C",
"K  c #D4B967",
"L  c #CDB676",
"P  c #CDB67B",
"I  c #EFD443",
"U  c #EFD54C",
"Y  c #F1D243",
"T  c #F1D44C",
"R  c #F2D552",
"E  c #F1D75A",
"W  c #F1D85B",
"Q  c #F3D963",
"!  c #F3DB6C",
"~  c #F3DD73",
"^  c #F4DE7A",
"/  c #F4E07C",
"(  c #BEB39F",
")  c #BEB4A6",
"_  c #BEB5AB",
"`  c #CE9D84",
"'  c #D09A80",
"]  c #F69682",
"[  c #F89782",
"{  c #F59A85",
"}  c #F59C89",
"|  c #CBA489",
" . c #CAB383",
".. c #C6B38F",
"X. c #C5AD97",
"o. c #C9A993",
"O. c #C4AF9B",
"+. c #C4B196",
"@. c #C3B19B",
"#. c #F5A18E",
"$. c #F6A594",
"%. c #F6A798",
"&. c #F6AA9B",
"*. c #F9A998",
"=. c #F6B19F",
"-. c #C1AFA2",
";. c #C0B0A2",
":. c #F5B1A3",
">. c #F6B7A9",
",. c #F6BBAD",
"<. c #F6BDB3",
"1. c #F8BEB0",
"2. c #F5E183",
"3. c #F4E38A",
"4. c #F6E492",
"5. c #F6E69B",
"6. c #F5C2B5",
"7. c #F8C2B5",
"8. c #F6C8BC",
"9. c #F8C9BD",
"0. c #F7E7A0",
"q. c #F6E8A3",
"w. c #F8E8A2",
"e. c #F6EBAD",
"r. c #F9EBAA",
"t. c #F7EDB3",
"y. c #F9EDB6",
"u. c #F7EDB9",
"i. c #F8EFBD",
"p. c #F9F1BE",
"a. c #F7CFC5",
"s. c #F9CEC4",
"d. c #F7D0C5",
"f. c #FAD1C7",
"g. c #F9D3CA",
"h. c #FAD8CE",
"j. c #FAD7D1",
"k. c #FADAD3",
"l. c #FADFD8",
"z. c #F9EFC0",
"x. c #F9F1C4",
"c. c #FAF2CB",
"v. c #FAE2DC",
"b. c #FAF4D4",
"n. c #FBF6DB",
"m. c #FAF8DF",
"M. c #F9E5E0",
"N. c #FAE9E5",
"B. c #FBEDE9",
"V. c #FBF7E3",
"C. c #FBF9E6",
"Z. c #FBF1ED",
"A. c #FCFAEC",
"S. c #FCF5F2",
"D. c #FDFBF4",
"F. c #FEFEFE",
/* pixels */
"F.F.F.F.F.F.b./ Y u p p p p p p p p i p p p p p p p p r p f L ;.;.` = @ $ $ $ @ $ @ $ $ $ $ $ $ $ $ $ $ $ $ = 6 %.v.F.F.F.F.F.F.",
"F.F.F.F.V.~ s 0 9 e e p p p p t p p e p p p p e p p p e p e x -.@.< + $ $ $ $ $ $ $ $ $ $ $ $ $ $ $ $ $ $ $ @ O X * { Z.F.F.F.F.",
"F.F.F.x.z 0 9 t p p p p t p 8 8 8 p t p i p p p e r p p p e h @.@.- # $ $ $ $ $ $ $ $ $ $ $ % O O @ $ $ $ $ $ $ $ @ X 1 j.F.F.F.",
"F.F.x.s 0 s p p i p t 8 0 9 l v z 9 0 8 p p p p p p p p r e h @.@.- # & $ $ $ $ $ $ $ & O X $ 1 4 1 $ X O $ $ $ $ $ $ O * j.F.F.",
"F.C.l 0 t p p p p p 0 c 3.c.A.F.A.c.3.c 0 e p p p p p p r e h O.@.- @ $ @ $ $ $ $ $ $ X 6 1.v.S.F.S.v.>.4 X $ $ $ $ $ $ O , Z.F.",
"F.~ 0 s p p p p 9 t 4.D.F.F.F.F.F.F.F.F.3.p p p p p p e p e h @.@.- @ $ $ $ $ $ $ $ @ :.F.F.F.F.F.F.F.F.F.&.O $ $ $ $ $ & . { F.",
"b.s p p p p p e r u.F.F.F.F.F.F.F.F.F.F.F.4.8 t r p p p p e j @.@.- @ $ $ $ $ $ $ O <.F.F.D.F.F.F.F.F.F.F.F.,.O $ $ $ % $ $ * v.",
"/ 0 p p p p p 8 3.F.D.F.F.F.F.F.F.F.F.F.F.F.Y 0 p p p p p e h @.@.- @ $ $ $ @ & X #.F.F.F.F.F.F.F.F.D.F.F.S.F.} X $ $ $ $ $ O $.",
"Y 8 p p p p 9 k A.F.F.F.F.c.E T e.F.F.F.F.F.5.0 p p p p i e h @.O.- # $ $ $ $ @ , Z.F.F.F.F.l.G 1 H M.F.F.F.F.N.; @ $ $ $ $ @ 6 ",
"u e p p p t 7 ! F.F.F.F.b.y 7 7 0 p.F.F.F.F.b.t i p p p p e h O.@.- # $ $ $ $ X #.F.F.F.F.B.= . @   1 S.F.F.F.F.#.X $ $ $ $ @ > ",
"p p p p p t 0 q.F.F.F.F.Q 0 t t 7 ~ F.F.F.F.V.y e p p p i e h @.@.- # $ $ $ $ @ g.F.F.F.F.%.X : $ : X :.F.F.F.F.g.O $ $ $ $ % $ ",
"p p p p p p 0 r.F.F.F.V.l e t t 7 3.F.F.F.F.x.9 p p p p t e h @.@.- @ $ $ $ @ , S.F.F.F.F.6 O $ $ $ O 6 F.F.F.F.Z., % $ $ $ $ $ ",
"p p p p p p 8 Y A.F.F.! 0 t p p t n.F.F.F.F.2.0 p p p p p e j @.O.- @ & $ $ O D F.F.F.F.S.> @ $ $ $ % , S.F.F.F.F.D O $ $ $ $ $ ",
"p p e p p p i 8 g R m 8 p p p 0 4.F.F.F.F.A.l 9 p p p p t e h @.O.- @ $ $ & o J F.F.F.F.N.* % $ $ $ @ * N.F.F.F.F.] X : @ $ $ $ ",
"p p p p p e p t e 0 8 i e t 0 W F.F.F.F.F.2.7 p p i p p r e h @.O.- # $ $ & X #.F.F.F.F.v.$ % $ $ $ $ $ l.F.F.F.F.%.X $ $ $ $ $ ",
"p p p p p p p p p t t p t 8 b A.F.F.F.F.x.9 p p p e p p i e h O.O.- # & $ $ . *.F.F.F.F.v.% % $ $ $ $ @ j.F.F.F.F.:.X $ $ @ $ $ ",
"p p p p 9 p p p p p e t 8 g n.F.F.F.F.D.c 9 p p p p e r p e h @.@.- % $ $ $ O #.F.F.F.F.v.* % $ $ $ $ $ l.F.F.F.F.$.. * $ $ $ % ",
"p p p p e p p p p p t 9 y c.F.F.F.F.F.W 7 p p p p p p p p e h @.O.- @ $ $ $ O J F.F.F.F.N.: @ $ @ $ @ * N.F.F.F.F.J O $ $ % $ $ ",
"p p p p p p p p i t 9 p p.F.F.F.F.F./ 7 t p e p p r p p p e h @.O.- @ $ $ $ X 6 F.F.F.F.S., % $ % $ @ < S.F.F.F.F.6 O $ $ $ $ % ",
"p p p p 9 p p p p 9 r i.F.F.F.F.F.3.7 p p p p p p p e r p e h @.@.- % $ $ $ % > Z.F.F.F.F.D O $ $ $ O G F.F.F.F.B.> % $ $ @ $ $ ",
"p p p p p p 9 p 9 r i.F.F.F.F.F.0.9 t t p i t p e p p p r e h @.O.- @ $ $ $ $ X d.F.F.F.F.:.. & $ : X ,.F.F.F.F.s.O $ $ $ $ $ $ ",
"9 p p p p p p 9 r y.F.F.F.F.F.5.7 0 0 0 7 0 8 p p p p p i e h @.O.- @ $ @ $ * O } F.F.F.F.S.4   O . 6 D.F.F.F.F.J X & @ $ $ $ $ ",
"p p p p p p e r t.F.F.F.F.F.D.5.3.4.4.4.4.2.Y 8 p p p p t e h O.@.- @ $ $ $ $ % ; N.F.F.F.F.B.$.H &.Z.F.F.F.F.v.& % $ $ $ $ @ $ ",
"p p p p p t 0 3.F.F.F.F.F.F.F.F.F.F.F.F.F.F.F.R 8 p i p p e h @.@.- % $ $ $ $ $ X H F.F.F.F.F.F.F.F.F.F.F.F.F.G O $ $ $ $ $ $ $ ",
"9 p p p p p p c.F.F.F.F.F.F.F.F.F.F.D.D.D.D.F.5.7 t p p p e h @.O.- @ $ $ $ $ $ $ O &.F.F.F.F.S.D.F.F.F.F.F.#.o $ $ $ $ $ $ $ $ ",
"p p e r p p 0 5.F.F.F.F.F.F.F.F.F.F.F.F.F.F.F.! 0 p p p p e h @.@.- @ $ $ $ $ $ $ $ O J N.F.F.F.F.F.F.F.M.H O $ $ $ % $ @ $ $ $ ",
"p p p p p p p y / r.q.r.r.r.r.r.r.r.r.r.r.r.! 9 p p p e p e h O.O.- @ $ $ $ $ $ % % $ O : J >.f.g.d.>.H $ O $ $ $ $ $ $ @ $ $ $ ",
"p p r p p p p p 0 7 7 7 0 0 7 7 0 0 0 0 7 7 7 p p p p p r e h @.O.- @ $ $ $ $ $ $ $ $ : % X X O O O X X $ $ $ % $ $ $ $ $ $ $ $ ",
"e p p p p t p p t t t y t u t u y t t t y t t t p p p p t p f @.@.- @ & $ $ $ $ : $ $ $ $ $ * : $ $ : * $ $ $ : $ $ $ $ $ $ $ % ",
"x q e q q 9 e e e e e q e q q e e e q e e e q e e e e q q q M O.( 2 o @ + + + + + + + + % + + + O @ + # + % + + + + + + O # o < ",
"..B M C M M M M M M C C M C C C C M C C M M M C C C C C M N +.( @.@.Z 2 2 2 2 2 2 2 2 2 2 2 2 2 2 2 2 2 2 2 2 Z 2 2 2 2 2 2 Z o.",
"( ) ) ) ) ) ) ) ) ) ) ) ) ) ) ) ) ) ) ) ) ) ;._ ) ) ) ) ) ) ( @.@.@._ _ _ _ _ ) _ _ _ _ _ ;._ _ _ _ _ ;._ _ ;._ _ ;._ _ _ _ ) @.",
"@.| ' ' ' ' ' ' ' ' ' ' ' ' ' ' ' ' ' ' ' ' ' S ' ' ' S S | ) @.@.@. .L L L L L L L L L L L L L L L L L L L L L L L L L L L  .@.",
"Z $ O % @ @ @ @ @ @ @ @ @ @ @ @ # @ # @ # # # % @ # @ @ @ % A ( ) K p e e e e p e e e e e e e e e e e e e e e e e e e e e e i N ",
"$ @ $ $ $ $ $ $ $ $ $ $ $ $ $ $ $ $ $ $ $ $ $ $ $ $ $ $ $ O = @.@.d e p p p p p p p p p t p p p t p t p p p p r t p p i p r i i ",
"$ $ $ $ $ $ $ $ $ $ $ $ $ $ $ * $ % $ $ $ $ $ $ $ $ $ $ $ $ , @.@.d e p p p p p p p p p t t p p e p t t p p p p p p p p p p p i ",
"$ $ $ $ @ $ $ $ $ $ $ $ $ $ $ X % = : O O $ $ $ $ $ $ $ $ # - @.@.h e r p p p p p p p p 8 7 8 y l s 0 7 8 p p p p p p p p p p p ",
"$ $ $ $ $ $ $ $ $ $ $ $ $ $ O } v.Z.N.8.5 O $ $ $ $ $ $ $ # - O.@.j e p p p p p p p p 7 z 3.i.n.A.n.y./ z 0 i p e p p p p p p p ",
"$ $ $ % $ $ $ $ % % % % $ X } F.F.F.F.F.S.4 O $ $ @ $ $ $ # - O.@.d e r p p p p p p 9 3.D.F.F.F.F.F.F.F.D./ 9 r r p e r p p p e ",
"$ $ $ @ $ $ $ $ @ $ $ $ @ - Z.F.F.F.F.D.F.1.O & $ $ $ $ $ # - O.@.h e 9 p p p p p 8 4.F.F.F.F.F.F.F.F.F.F.F.4.0 p p p p p p p r ",
"$ $ $ $ @ $ $ $ $ $ $ $ X <.F.F.F.F.F.F.F.l.@ $ $ @ $ $ $ @ - @.@.d e p p p p p q U F.F.F.F.F.F.F.F.F.F.F.F.F.T 0 t i p p p p p ",
"$ $ $ $ $ $ $ $ $ $ $ O 6 F.F.F.F.F.F.F.F.M.$ @ $ $ $ $ $ @ - @.@.d e p p p p p 7 q.F.F.F.F.b.R z W n.F.F.F.F.q.0 t e p p p r e ",
"$ $ $ $ $ $ $ $ $ $ @ $ k.F.F.F.<.Z.F.F.F.M.* $ $ $ $ $ $ @ - @.@.h e p p p p p p c.F.F.F.F.U 7 p 7 R F.F.F.F.b.t p p p p p p p ",
"@ $ $ $ $ $ @ $ @ * X } F.F.F.N.6 S.F.F.F.v.$ $ $ $ % % $ @ - @.@.h e p p p p p t b.F.F.F.D.k p t i z A.F.F.F.n.t i p p e p p p ",
"$ @ $ $ $ $ $ $ $ @ - Z.F.F.F.} > F.F.F.F.M.$ @ $ $ % $ $ @ = @.( d e t p p p p 8 e.F.F.F.F.R 7 e 0 T F.F.F.F.e.8 t p p r p p p ",
"$ $ $ $ $ $ $ @ * X <.F.F.F.B.$ 1 S.F.F.F.v.$ $ $ $ $ $ $ @ - @.+.d 9 p p p e t 0 U F.F.F.F.b.E m W n.F.F.F.F.R 0 t p p p p p p ",
"$ $ $ $ $ $ $ $ O 6 F.F.F.F.#.. 3 S.F.F.F.v.* @ $ % $ $ $ % = @.@.d e p p p p p t 8 / D.F.F.F.F.F.F.F.F.F.F.2.0 i p e r p p e r ",
"$ $ $ $ $ $ $ $ @ j.F.F.F.v.: O 3 F.F.F.F.M.$ $ $ $ $ $ $ @ , @.@.d e p p p p p p p 8 e.F.F.F.F.F.D.F.F.F.u.8 9 t i p p p p p p ",
"$ $ @ $ $ $ $ X } F.F.F.F.} O $ 3 F.F.F.F.l.$ $ $ $ $ $ $ # - O.@.h e p p p p p e t e.F.F.F.F.F.F.F.F.F.F.F.i.g 8 t p p p p p p ",
"$ $ $ $ $ $ O - Z.F.F.F.j.X X   = F.F.F.F.l.O O $ $ $ $ $ # - @.@.h e t p p p p 9 t.F.F.F.F.F.i.5.y.D.F.F.F.F.z.i i p p e p p p ",
"$ $ $ $ $ * X <.F.F.F.F.7.H { J #.D.F.F.F.N.] < O $ $ $ $ # = @.@.d e i e p t 0 ! F.D.F.F.D.W 0 0 0 U D.F.F.F.F.~ 0 p p p p p p ",
"$ $ $ $ $ O F F.F.F.F.F.F.F.F.F.F.F.F.F.F.F.F.S.G O $ $ % # - @.@.d e p p p p 8 z.F.F.F.F.0.0 t t t 7 4.F.F.F.F.z.8 p p r e i p ",
"@ $ $ $ $ O d.F.D.F.F.F.F.F.D.F.F.F.F.F.F.F.D.F.f.O $ $ $ # - @.@.d e p p p e s V.F.F.F.F.~ 0 t p t 7 ! F.F.F.F.V.g e p p p e p ",
"$ $ $ $ $ O 6.F.F.F.F.F.F.F.F.F.F.F.F.F.F.F.F.F.>.X $ $ $ # = O.@.d p p p p i t n.F.F.F.F.2.0 t p s 7 4.F.D.F.F.V.s i p p p p i ",
"> @ $ $ $ @ 1 8.v.v.l.l.v.v.v.l.M.F.F.F.F.D.v.,.> % $ $ $ % - O.@.d e p p p p 8 y.F.F.F.F.n.y 0 e 0 z C.F.F.F.F.z.9 p p p p 9 g ",
"6 O $ $ $ $ @ O $ * $ $ * $ $ O 3 S.F.F.F.M.$ O @ $ % $ $ @ - @.@.d e p p p t 0 ! F.D.F.F.F.c.W Y ! b.F.F.F.F.F.^ 0 t e p p 8 n ",
"%.X $ $ $ $ $ $ $ @ @ $ $ $ $ O 3 D.F.F.F.l.$ $ $ $ % $ $ # = @.@.d e p p p p p y b.F.F.F.F.F.F.F.F.F.F.F.F.F.n.s i p p p t 0 / ",
"v.& $ $ $ $ $ $ $ $ $ $ $ $ * O 3 D.F.F.F.v.$ $ $ $ $ $ $ # - O.( d p p p p p p 8 m A.F.F.F.F.F.F.D.F.F.F.F.A.T 0 i p p p e t b.",
"F.{ X & $ $ $ $ $ $ $ $ $ $ $ @ = B.F.F.F.8.O $ $ $ $ % $ @ - @.+.d p p p p p p t 8 k y.F.F.F.F.F.F.F.F.F.p.b 0 t p p p t 7 ~ F.",
"F.Z., O $ $ $ $ $ $ $ $ $ $ $ $ O F d.h.<., @ $ % $ $ $ $ # = @.+.d e p p p p p p t 8 8 m 2.t.c.n.c.i.3.Y 9 8 t p p p t 8 k C.F.",
"F.F.j.$ O $ $ $ $ $ $ $ $ $ $ $ $ O O O X O $ $ $ $ $ $ $ @ - O.@.h e r p p p p p p p p 0 0 8 9 t i 0 0 8 p p p p p t 8 y x.F.F.",
"F.F.F.k., X $ $ $ $ $ @ $ $ @ $ $ $ $ $ & $ $ $ $ % $ @ $ % - O.@.j e p p 9 p p p p p p p t t p p p t t t p p p t e 7 l x.F.F.F.",
"F.F.F.F.Z.{ $ O O $ $ $ $ $ $ $ @ $ $ $ $ $ @ $ $ $ $ $ $ + < @.;.x 8 i p p p p e i p p p p p p p p p p p p e 9 0 y ~ C.F.F.F.F.",
"F.F.F.F.F.F.v.%.5 > $ $ $ $ $ $ $ $ $ $ $ $ $ $ $ $ $ $ @ > ` @.) P u e p p 9 p p p p p p p p p p p p p p p u I / b.F.F.F.F.F.F."
};
