/* XPM */
static const char *xpm2048[] = {
/* columns rows colors chars-per-pixel */
"64 64 188 2 ",
"   c #F55A36",
".  c #F65C3A",
"X  c #F85A38",
"o  c #F4613F",
"O  c #F15F40",
"+  c #EF6442",
"@  c #EB6F4F",
"#  c #F56444",
"$  c #F56649",
"%  c #F46A4B",
"&  c #F56A49",
"*  c #EB6F50",
"=  c #F46D50",
"-  c #EB7152",
";  c #E67558",
":  c #EB7659",
">  c #E57E5F",
",  c #EE7B5C",
"<  c #F57254",
"1  c #F87257",
"2  c #F47558",
"3  c #F87359",
"4  c #F37A5D",
"5  c #E57E60",
"6  c #EF7B62",
"7  c #F17761",
"8  c #F47C62",
"9  c #E4BF3E",
"0  c #EFC70E",
"q  c #EFC80E",
"w  c #F0C70E",
"e  c #F0C80F",
"r  c #EFC715",
"t  c #EFC812",
"y  c #EEC618",
"u  c #EECA1C",
"i  c #F0C711",
"p  c #F0C811",
"a  c #F0CA1C",
"s  c #EBC423",
"d  c #EFCA24",
"f  c #E4C22F",
"g  c #EFCC2A",
"h  c #F1CC23",
"j  c #F1CD2B",
"k  c #F1D22F",
"l  c #E5C230",
"z  c #EECD32",
"x  c #EFCF3A",
"c  c #E1C03B",
"v  c #F1CF30",
"b  c #EED334",
"n  c #EED03B",
"m  c #F0D035",
"M  c #F3D13A",
"N  c #DFBE46",
"B  c #DBBD4B",
"V  c #D9BC57",
"C  c #E0BE45",
"Z  c #DE876A",
"A  c #DD896E",
"S  c #D69176",
"D  c #D4977E",
"F  c #EF8067",
"G  c #E0876B",
"H  c #F4846B",
"J  c #F6886F",
"K  c #F58066",
"L  c #EE8E77",
"P  c #EF8F7B",
"I  c #F08570",
"U  c #F58B73",
"Y  c #F68E78",
"T  c #F5927C",
"R  c #FA957D",
"E  c #D4BA64",
"W  c #CFB772",
"Q  c #CFB871",
"!  c #CDB57B",
"~  c #D0B771",
"^  c #D0B871",
"/  c #EFCF40",
"(  c #EED042",
")  c #EFD24C",
"_  c #F2D342",
"`  c #F3D54B",
"'  c #F5D849",
"]  c #EED450",
"[  c #EFD65E",
"{  c #F2D454",
"}  c #F1D957",
"|  c #F1D75D",
" . c #F1D95C",
".. c #EED865",
"X. c #EEDA6C",
"o. c #F0D660",
"O. c #F2DA66",
"+. c #F2DB6C",
"@. c #F3DE74",
"#. c #F4E075",
"$. c #F4E07C",
"%. c #D29A81",
"&. c #EF9481",
"*. c #F69680",
"=. c #F49A84",
"-. c #F69E89",
";. c #CDA28B",
":. c #CAB583",
">. c #C7B38C",
",. c #C6AC97",
"<. c #C6AC98",
"1. c #C8AD99",
"2. c #C9A892",
"3. c #C4B295",
"4. c #C2B19D",
"5. c #F6A18E",
"6. c #F8A48F",
"7. c #EEA492",
"8. c #F6A492",
"9. c #F5AA9A",
"0. c #F7A896",
"q. c #EFBAAE",
"w. c #F6B3A2",
"e. c #F8B7A7",
"r. c #F6B9A7",
"t. c #F6BBAB",
"y. c #F9BAAA",
"u. c #F1BFB3",
"i. c #F8BEB1",
"p. c #F4E285",
"a. c #F5E38B",
"s. c #F8E48E",
"d. c #F4E494",
"f. c #F8E490",
"g. c #F5E69B",
"h. c #F5E89D",
"j. c #F6C2B4",
"k. c #F5C6BB",
"l. c #F8CABE",
"z. c #F6C4B6",
"x. c #F6EAA4",
"c. c #F8EAA1",
"v. c #F6E7A9",
"b. c #F5EAAC",
"n. c #F9ECAC",
"m. c #F4E6A2",
"M. c #F6ECB2",
"N. c #F8EEB3",
"B. c #F6EEBC",
"V. c #F8EDBF",
"C. c #F2CBC2",
"Z. c #F8CBC2",
"A. c #F9D1C5",
"S. c #F5D3CB",
"D. c #F6D5CA",
"F. c #F6D6D0",
"G. c #F6DCD4",
"H. c #FADBD3",
"J. c #F8DED8",
"K. c #F5DFDB",
"L. c #F6EFC3",
"P. c #F9F1C5",
"I. c #F7F1CB",
"U. c #F9F2CC",
"Y. c #F9E0D7",
"T. c #F6E1DB",
"R. c #FBE2DB",
"E. c #F7F1D0",
"W. c #FAF4D3",
"Q. c #F7F5D8",
"!. c #F9F4DC",
"~. c #FCF8DA",
"^. c #F6E6E1",
"/. c #F9E6E2",
"(. c #FAE9E5",
"). c #F6EDEA",
"_. c #FBECE9",
"`. c #F5ECE6",
"'. c #F7F7E4",
"]. c #FAF7E2",
"[. c #FBF9E5",
"{. c #F9F2ED",
"}. c #FBFAEC",
"|. c #FAF6F3",
" X c #FCFCF5",
".X c #F7FFFD",
"XX c #FEFFFE",
"oX c None",
/* pixels */
"oXoXoXoXoXoXoX' v a p p p p p p r e r r e e e r p p p p i s ~ 4.4.%.%   . . . . . . . . . . . . . X . . . . % 2 H oXoXoXoXoXoXoX",
"oXoXoXoXoX_ h i i i p p p p p p e e e e r e e r p p p p i i c 4.4.: . . . . . . . . . . . . . . . . . . . . .   o # 4 oXoXoXoXoX",
"oXoXoXoXj e e p i p p i p p e e e i e e e e e e p p p p i e l 3.<.@ . . . . . . . . . . . . .       . X . . . .   . . = oXoXoXoX",
"oXoXoXh e r e p i i p e r h n ` / d r 0 e r r e p p p p i e l 3.<.@   . . . . . . . . . . . @ 4 6 7 < . . . . X . . .   & oXoXoX",
"oXoXj e p p p p p p u ) g.I.[.|.[.I.g.{ a e r e p p p p p p l 4.3.@ . . . . . . . . . o I u.T.{.|.{.K.q.F O .   . . . . X = oXoX",
"oX_ p p p p p p e u p.[.XXXXXXXXXXXXXX[.#.t e e p p p p p e l 3.<.@ . . . . . . .   # 8.{.XXXXXXXXXXXXXX{.7.# X . . . . . X 8 oX",
"oXh p p p p e e h x. XXXXXXXXXXXXXXXXXXX Xp.t r p p p p p e l 3.<.@ . . . . . . . # q. XXXXXXXXXXXXXXXXXXX Xw.O . . . . . . % oX",
"] r p p p p e r p. XXXXXXXXXXXXXXXXXXXXXXX}.` e p p p p p e l 3.<.@ . . . . . . . 5.XXXXXXXXXX|.{. XXXXXXXXX|.-.. . . . . . . I ",
"b p p p p p e v ~.XXXXXXXXB.X.O.v. XXXXXXXXXh.p p p p p i e l 1.<.@     . . . . < /.XXXXXXXXS.P 6 &.G.XXXXXXXXK.= . . . . . . 4 ",
"h e p p p p e +.XXXXXXXXI.z 0 0 h M.XXXXXXXXP.d e p p p i i l 3.<.@   . . . O . 8.XXXXXXXXK.2       6 /.XXXXXXXX-.. . . . . . % ",
"p p p p p p p g.XXXXXX X+.0 p p e @.XXXXXXXXW.h e i p p e e l 3.,.*   . . . X O A.XXXXXXXX9.. . .   . w.XXXXXXXXZ.o . . . . . o ",
"p p p p p p p h.XXXXXXW.v e p p e p.XXXXXXXXP.a i i p p p e l 3.,.* . . X X X < (.XXXXXX XI X . . X . Y |.XXXXXX/.= . . . . . X ",
"p p p p p e i ' W.|.].@.e e r e d I.XXXXXXXXp.p p p p p i e l 3.,.*   . . . . H |.XXXXXX(.= X . . . . 2 _.XXXXXX{.H     . X o X ",
"p p p p p p i i j ` n y e e 0 y a. XXXXXXX~.M p p p p p i e l 3.,.*   . . .   &.XXXXXXXXT.% X . . . X = R.XXXXXXXXR   . . . . . ",
"p p p p p p i i e e e e e e p @.}.XXXXXX X$.e e p p p p e e l 3.<.@   . . . . 5.XXXXXXXXH.& X X . . . $ H.XXXXXXXX8.    . . . . ",
"p p p p p p e i e e e r e e { ].XXXXXXXXn.u e p p p p p i e l 3.<.*   . . .   0.XXXXXXXXH.$ X X . .   $ H.XXXXXXXX0.  o . . . . ",
"p p p p p p p p p p p p q k I.XXXXXXXX!.) q t p p p p p p p l 4.,.@ . . . .   5.XXXXXXXXH.% . X . . . % H.XXXXXXXX8.  . . . . . ",
"p p p p p p p p p p p q g N.XXXXXXXX X+.0 t p p p p p p p e l 3.,.@   . . .   R  XXXXXXXK.= X X . . . @ /.XXXXXXXXT   . . . . . ",
"p p p p p p p p p p q d n. XXXXXXX Xp.r t p p p p p p p p e l 3.,.*   . . .   H |.XXXXXX_.=   X . . . 3 _.XXXX.X_.K . . . . . . ",
"p p p p p p p p p t h c.XXXXXXXXXXd.a 0 p p p p p p p p p e l 3.,.@ . . . .   = (.XXXXXX|.U . . . .   Y |.XXXXXXR.= . . . . . . ",
"p p p p p p p p 0 v N.XXXXXXXXXXm.d 0 r p r e e p p p p e e 9 3.,.@     . . X # C.XXXXXXXXw.. . . . . t.XXXXXXXXk.. . . . . . . ",
"p p p p p p p p g b.XXXXXXXX Xh.d t 0 0 p e e r p r p p e 0 s 3.,.*   . . . . X -.XXXXXXXX/.7   X . I ).XXXXXX X*.. . . . . . . ",
"p p p p q t e h b.XXXXXXXXXX Xx.d.d.d.d.d.p.] y e e p r r e l 3.,.* . . . . . . = R.XXXXXXXXJ.7.P 9.^.XXXX.XXXH.= . . . . . . . ",
"p p t t t t t a.XXXXXXXXXXXXXXXXXXXXXXXXXXXX].| e p p e e e l 3.,.* . . . . . . . =.|.XXXXXXXX.X|.XXXXXXXXXX{.T X . . . . . . . ",
"p p p p t t a B.XXXXXXXXXXXXXXXXXXXXXXXXXXXX Xs.t t t p e e l 4.,.*   . . . . . . O 9.{.XXXX.XXXXXXXXXXXXX{.8.X . . . . . . . . ",
"p p p p t e t s. XXXXXXXXXXXXXXXXXXXXXXXXXXX}.O.q t p p r e l 3.,.@   . . . . . . . O U F.|.XXXXXXXX.X|.A.Y O . X . . . . . . . ",
"p p p p t t t h +.s.f.f.f.f.f.f.f.f.f.f.f.s. .u q p p p 0 e f 3.,.@   . . . . . . . O X $ J 9.l.C.k.0.I #   . . X . . . . . . o ",
"p p p p e e e q e p r p r p r p r r e r p p e e p p p p 0 0 f 3.,.*   . . . . . . X X . . X X # # + . . . X . . . . . . . . . X ",
"t t t t t q q t e e 0 0 0 r e e p p 0 0 0 0 q t p t q t e e f 3.<.* X O . . . . . . . X . . X X . . . . X . . . . . X X X . . . ",
"f e q q e e e q e e 0 0 e t q q p e 0 0 r e e e e e e q e p B 4.4.5   X . .   . X X X X   X . X       X     X X . . . . X . . - ",
":.V N C N C C C C / B N N C C C C / B N C N C C C N C C / E >.4.4.2.A 5 5 5 5 5 5 5 5 6 5 5 5 5 5 6 5 5 5 5 5 6 5 5 5 5 5 F G ;.",
"4.4.4.4.4.4.4.4.4.4.4.4.4.4.4.4.4.4.4.4.4.4.4.4.4.4.4.4.4.4.4.4.4.4.4.4.4.4.4.4.4.4.4.4.4.4.4.4.4.4.4.4.4.4.4.4.4.4.4.4.4.4.4.4.",
"4.;.D D D D D D D %.D D %.%.D %.D D D D D %.D D %.%.D %.D ;.4.4.4.4.:.W W W W W ~ Q Q Q Q Q ~ Q Q Q Q Q ~ ~ ~ ~ ~ ~ ~ ~ ~ Q ! 3.",
"Z + . o . . o . O . . O . . . . . O . . . o . . . . . . . # S 4.4.Q y r r y r r r r r r r y r r r r r y r r r r r r r r r u s B ",
"O   o   . . . . . . . . . . . . . . . . . . . . . . .   . . @ 1.3.9 0 0 p p p e p e p e p p p e e p p p p e p p p p p p p e p y ",
". . . . . . o . . . . . . . . . . . . . . . . X . . . . . . @ <.3.f 0 0 p p p p p p p p p p p e e e p p p p p p p p p p p p p p ",
". . . . . . . . . . . . . . . . % : - o   . . . . . . . . . @ <.3.l e p p p p p p p p p e e a z x z u q e q p p p p p p p p p p ",
". . . . . . . . . . . . . . + T D.`.^.t.4 . . . . . . . . X @ 1.3.l p p p p p p p p p t v @.M.!.{.!.c.O.v t e p p p p p p p p p ",
". . . . . . . . . . . . . . -.|..XXXXXXXY.6 . . . . . . . . @ <.3.f p p p p p p p 0 a @.W.XXXXXXXXXXXX XU.#.a p p p p p p p p p ",
". . . . . . . . . . . .   2 /.XXXXXXXXXXXXi.O . . . . . . . @ <.3.f e p p p p p p a f. XXXXXXXXXXXXXXXXXXX Xa.p e p p p p p p p ",
". . . . . . . . . . . . o r.XXXXXXXXXXXXXXH.$ . . . . . . X @ <.3.f e e e t e p i  .}.XXXXXXXX X[.XXXXXXXXXX}.' 0 p e e r p p p ",
". o . . . . . . . .     U {.XXXX|..XXXXXXXK.$ . . . . . . . @ 3.3.f q e e e t p t c.XXXXXXXXL.[ ( ..E.XXXXXXXXh.e e r e p p p p ",
". . . . . o . . . .   $ A.XXXXXXC.).XXXXXXR.$ . . . . . . . @ 1.3.f e p p p p p a P.XXXXXX}.{ 0 e e |  XXXXXXXI.h e e e p p p p ",
". . . . . . . . . .   =. XXXXXK.P (.XXXXXXR.$ . . X o . . X @ 3.3.f e p p p p p h I.XXXXXX].x q e 0 M [.XXXXXXU.h 0 r e p p p p ",
". . . . . . . . . . : K.XXXXXX-.1 _.XXXXXXR.% . . . . X . X @ 1.3.f t e e t p p r n.XXXXXX}.[ 0 e 0 [  XXXXXXXc.r p p p p p p p ",
". . . . . . . . . + u.XXXXXXH.$ 1 _.XXXXXXR.% . . . o X . X @ 2.3.f t e e t p p q } }.XXXXXXI.X.] +.E.XXXXXX}.{ e r p p p p p p ",
"o X . . . . . .   P |.XXXX X=.X 1 _.XXXXXXR.$ . . . . . . X @ 1.3.f e e t t e r e r #.[.XXXX XXX|. XXXXXXX}.$.p p p p p p p p p ",
". X . . . . . . $ F.XXXXXXH.% . 1 _.XXXXXXR.$ . . . . . . . @ 1.3.f q e t t t t e e h b. XXXXXXXXXXXXXXXXXL.j 0 r p p p p p p p ",
". X . . . . . . -.|.XXXXXX-.  . 3 _.XXXXXXJ.$ . . . . . . . @ 1.3.f e p p p p e p h h.|. XXXXXXXXXXXXXXXXX Xx.j e p p p p p p p ",
". o . . . . . = T.XXXXXXG.%     < _.XXXXXXR.$ . . . . . . X @ <.3.f p p p p p e a h.XXXXXXXX}.L.b.B.}.XXXXXXXXn.a e p p p p p p ",
". . . . . . . e.XXXXXXXXl.T R T 6.{.XXXXXX(.=.< . . . . . . @ <.3.f p p p p i e O. XXXXXXX[.X.a r u ..].XXXXXX|.+.0 e p p p p p ",
". . . . .   U {.XXXXXXXX XXXXXXXXXXXXXXXXXXXXXR.U . . . . . @ <.3.f e p p p i a N.XXXXXXXXh.r e t p p g.XXXXXXXXN.a e p p p p p ",
". . . . . o j.XXXXXXXXXXXXXXXXXXXXXXXXXXXXXXXXXXz.o o X   X @ <.3.f e e p p p h W.XXXXXXXX@.0 e p p e @.XXXXXXXXW.h e p p p p p ",
"o X . . . . r. XXXXXXXXXXXXXXXXXXXXXXXXXXXXXXX.Xw.  X . . . @ 3.3.f e e p p p h W.XXXXXXXXp.e p p p e d. XXXXXXXE.h t p p p e e ",
"&   . . . . 2 j.H.H.H.H.H.H.H.H.T. XXXXXXX|.H.e.= X . . . X @ 1.3.f q p p p p r n.XXXXXXXXI.z 0 e 0 ( W.XXXXXXXXN.a p p p p e j ",
"4   . . . . X o # # $ $ & # & # 8 _.XXXXXXR.< .   . . . . . @ 3.3.f p p p p p p +.XXXXXXXXXXL.+.{ @.E.XXXXXXXXXX@.0 p p p p p x ",
"H o . . . X . X . . . . . . .   1 _.XXXXXXR.%   . . . . . X @ ,.3.f t e e e t p g P.XXXXXXXXXX X X|.XXXXXXXXXXP.v 0 p p p e y { ",
"oX& X . . o X o . . . . . . . . 2 ).XXXXXXJ.% . . . . X . X @ <.3.f t e e t e r 0 ` E.XX XXXXXXXXXXXXXXXXXXXW.` p p p p p e h oX",
"oXF . . . . X X . . . . . . . . % G.XXXXXXk.+ . . . . . . . @ <.3.f e e p p e t p t z h.}.XXXXXXXXXXXXXX|.N._ p p p p p e e _ oX",
"oXoX=   . . o . . . . . . . . . . L C.D.u., . . . . . . . X @ <.3.f q e p p p p t t t d { f.B.W.!.W.B.g...h p p p p p p e v oXoX",
"oXoXoX& X X . . . . . . . . . . X o o # o   . X . . . . . . @ 3.3.f p p p p r e r e e e 0 r u g g g a r p p p p p p r 0 h oXoXoX",
"oXoXoXoX$ X X . . . . . . . . . . .   . . X . o . . . . . . @ <.3.f p p p p e e e e r e e e r e 0 e e i p p p p p p p j oXoXoXoX",
"oXoXoXoXoX8 = . . . X . . . X . . . . . . . . . . . . . .   : 1.4.c p p e e t t e r e e e r e e e r e e e e e p r a M oXoXoXoXoX",
"oXoXoXoXoXoXoX8 1 = o . . . . . . . . . . . . . . . . .   % %.4.4.W d r t e r t e r e r e e e r e e e r t q h b ' oXoXoXoXoXoXoX"
};
